<svg xmlns="http://www.w3.org/2000/svg" xmlns:xlink="http://www.w3.org/1999/xlink" width="3234px" height="3128px" viewBox="0 0 3233.600560815615 3128.125591810871">
    
        <g id="ecc30691-c980-442b-9b05-cd9ee751fd47" name="New Group">
          <g id="b80c151f-b127-4152-b808-7e5649faa906">
<g style="">
		<g id="b80c151f-b127-4152-b808-7e5649faa906-child-0">
<path style="stroke: rgb(193,193,193); stroke-opacity: 1.00; stroke-width: 0; stroke-dasharray: none; stroke-linecap: butt; stroke-dashoffset: 0; stroke-linejoin: miter; stroke-miterlimit: 4; fill: rgb(27,42,71); fill-opacity: 1.00; fill-rule: nonzero; opacity: 1;" transform="matrix(2.947963 0 0 2.946568 1616.800402 1564.063022) matrix(1 0 0 1 -0.635 -87.702451)  translate(-530.583987, -405.965)" d="M 805.00 786.95 C 783.19 785.38 763.60 781.50 750.18 776.11 C 737.84 771.15 726.81 761.35 722.43 751.44 C 715.15 734.98 715.39 704.80 722.93 689.49 C 728.67 677.84 741.71 668.00 755.52 664.91 C 758.57 664.23 760.71 663.35 760.28 662.96 C 759.85 662.57 757.03 661.46 754.00 660.50 C 738.71 655.65 728.01 647.00 723.99 636.24 C 720.81 627.74 720.00 622.02 720.00 608.02 C 720.00 578.31 728.08 565.69 753.96 555.02 C 769.75 548.50 795.74 545.30 840.50 544.35 C 870.72 543.71 898.68 544.84 920.00 547.57 C 957.93 552.43 977.39 564.68 983.52 587.57 C 985.73 595.81 985.71 622.18 983.50 630.49 C 979.64 644.97 966.49 656.83 949.54 661.09 C 946.97 661.74 945.24 662.60 945.69 663.01 C 946.13 663.42 949.48 664.73 953.13 665.92 C 966.49 670.28 976.63 678.09 981.98 688.12 C 986.31 696.24 987.96 705.18 987.98 720.59 C 988.02 748.27 980.11 763.51 960.40 773.71 C 939.51 784.53 910.93 788.13 848.29 787.86 C 830.25 787.78 810.78 787.37 805.00 786.95 Z M 840.83 271.03 C 820.66 270.74 803.79 270.12 803.33 269.67 C 802.68 269.01 802.68 36.93 803.33 36.35 C 803.43 36.27 859.19 35.88 927.25 35.47 L 1051.00 34.74 L 1051.00 87.00 L 864.00 87.00 L 864.00 127.00 L 1041.00 127.00 L 1041.00 174.69 L 1027.34 175.34 C 1019.83 175.71 980.02 176.00 938.88 176.00 L 864.07 176.00 L 863.79 198.00 L 863.50 220.00 L 1055.03 220.00 L 1054.77 245.75 L 1054.50 271.50 L 966.00 271.53 C 917.33 271.54 861.00 271.32 840.83 271.03 Z M 279.75 271.47 C 279.34 271.03 279.00 217.64 279.00 152.83 L 279.00 35.00 L 313.75 35.00 C 332.86 35.00 388.66 35.30 437.75 35.67 L 527.00 36.33 L 527.00 85.70 L 433.45 86.24 C 381.99 86.53 339.68 86.99 339.41 87.25 C 339.15 87.51 339.24 96.27 339.62 106.71 L 340.30 125.70 L 356.81 126.35 C 365.89 126.71 405.65 127.00 445.16 127.00 L 517.00 127.00 L 517.00 176.00 L 340.00 176.00 L 340.00 185.25 C 339.99 190.34 339.70 200.24 339.34 207.25 L 338.69 220.00 L 378.60 220.00 C 400.54 220.00 443.81 220.30 474.75 220.66 L 531.00 221.33 L 531.00 271.00 L 442.25 271.00 C 393.44 271.00 337.08 271.29 317.00 271.63 C 296.92 271.98 280.16 271.91 279.75 271.47 Z M 808.00 289.86 L 931.42 290.18 C 999.30 290.36 1055.21 290.87 1055.67 291.33 C 1056.13 291.79 1056.64 302.93 1056.80 316.08 L 1057.10 340.00 L 1029.80 340.00 C 1014.79 340.00 972.46 340.30 935.75 340.67 L 869.00 341.33 L 869.00 380.67 L 925.25 381.34 C 956.19 381.70 996.01 382.00 1013.75 382.00 L 1046.00 382.00 L 1046.00 430.00 L 869.00 430.00 L 869.00 473.67 L 911.75 474.34 C 935.26 474.70 978.46 475.00 1007.75 475.00 L 1061.00 475.00 L 1061.00 525.00 L 808.00 525.00 L 808.00 289.86 Z M 240.20 520.75 C 241.50 518.41 269.98 465.53 303.48 403.24 L 364.39 289.98 L 403.95 290.24 L 443.50 290.50 L 447.22 297.50 C 449.27 301.35 477.45 353.77 509.85 414.00 C 553.53 495.19 568.42 523.70 567.45 524.26 C 566.72 524.68 550.72 524.91 531.88 524.76 L 497.63 524.50 L 476.27 483.50 L 402.25 483.26 C 344.24 483.07 328.02 483.28 327.23 484.26 C 326.68 484.94 321.64 494.39 316.03 505.25 L 305.83 525.00 L 237.83 525.00 Z M 611.20 779.80 C 610.34 778.94 610.00 772.20 610.00 755.80 L 610.00 733.00 L 425.00 733.00 L 425.11 708.75 C 425.17 695.41 425.51 680.35 425.86 675.27 L 426.50 666.04 L 513.00 606.02 L 599.50 546.00 L 634.25 546.00 L 669.00 546.00 L 669.00 685.69 L 681.75 686.34 C 688.76 686.70 697.09 686.99 700.25 687.00 L 706.00 687.00 L 706.00 733.00 L 669.00 733.00 L 669.00 781.00 L 640.70 781.00 C 620.02 781.00 612.08 780.68 611.20 779.80 Z M 121.73 516.75 C 119.30 512.21 92.44 462.38 62.04 406.00 C 12.64 314.36 1.34 293.32 0.17 290.75 C -0.23 289.86 58.74 289.73 65.13 290.60 L 69.54 291.21 L 102.28 353.85 C 146.27 438.03 164.60 472.37 165.77 472.76 C 167.18 473.23 191.28 428.74 243.50 329.31 L 263.50 291.22 L 267.89 290.61 C 274.25 289.73 325.28 289.89 326.71 290.80 C 327.58 291.35 325.48 296.13 319.36 307.54 C 251.51 434.08 203.93 522.30 202.76 523.75 C 201.99 524.71 192.99 525.00 163.96 525.00 L 126.16 525.00 Z M 617.00 341.00 L 511.00 341.00 L 511.00 290.00 L 785.00 290.00 L 785.00 341.00 L 679.00 341.00 L 679.00 525.00 L 617.00 525.00 L 617.00 341.00 Z M 585.00 270.99 C 566.03 270.69 550.39 270.34 550.25 270.22 C 549.68 269.72 550.06 74.90 550.66 56.25 L 551.32 36.00 L 612.00 36.00 L 612.00 219.99 L 782.50 220.50 L 782.77 245.59 L 783.03 270.68 L 747.77 271.34 C 709.96 272.04 640.94 271.90 585.00 270.99 Z M 903.79 738.87 C 914.08 737.52 921.66 733.91 924.45 729.04 C 925.90 726.51 926.53 723.18 926.82 716.54 C 928.02 689.04 920.03 686.22 844.00 687.32 C 822.28 687.63 801.59 688.39 798.04 689.00 C 789.43 690.48 784.41 693.45 781.15 698.99 C 778.74 703.10 778.50 704.44 778.50 714.00 C 778.50 723.21 778.79 725.01 780.87 728.63 C 783.33 732.94 787.69 735.94 794.50 738.03 C 802.52 740.50 886.56 741.15 903.79 738.87 Z M 898.67 639.00 C 909.71 637.84 917.61 635.06 921.54 630.96 C 924.31 628.07 924.47 627.41 924.79 617.71 C 925.10 608.60 924.88 607.02 922.82 603.06 C 917.61 593.07 909.47 591.72 854.00 591.66 C 802.71 591.59 792.87 592.66 785.57 599.07 C 781.21 602.90 779.49 609.59 780.38 619.21 C 781.68 633.12 786.84 637.25 805.00 638.93 C 817.40 640.08 887.94 640.13 898.67 639.00 Z M 610.00 643.00 C 610.00 618.80 609.66 599.01 609.25 599.03 C 608.84 599.05 583.58 616.13 553.13 636.99 C 522.68 657.85 494.45 677.07 490.40 679.71 C 486.34 682.34 483.02 684.82 483.01 685.21 C 482.99 686.34 494.13 686.59 553.75 686.80 L 610.00 687.00 Z M 82.50 20.93 L 108.50 20.93 L 134.50 20.93 L 134.50 37.50 L 116.25 37.77 L 98.00 38.05 L 98.00 258.95 L 134.50 259.50 L 134.79 267.25 L 135.08 275.00 L 81.99 275.00 L 82.50 20.93 Z M 1008.00 776.00 L 1045.00 776.00 L 1045.00 558.00 L 1008.00 558.00 L 1008.00 541.00 L 1061.00 541.00 L 1061.00 791.00 L 1008.00 791.00 L 1008.00 776.00 Z M 449.00 431.36 C 449.00 429.55 402.80 342.03 401.84 342.01 C 401.48 342.00 399.37 345.31 397.15 349.35 C 393.66 355.70 362.29 415.66 356.13 427.75 L 353.96 432.00 L 401.48 432.00 C 427.62 432.00 449.00 431.71 449.00 431.36 Z" stroke-linecap="round"></path>
</g>
		<g id="b80c151f-b127-4152-b808-7e5649faa906-child-1">
<path style="stroke: rgb(193,193,193); stroke-opacity: 1.00; stroke-width: 0; stroke-dasharray: none; stroke-linecap: butt; stroke-dashoffset: 0; stroke-linejoin: miter; stroke-miterlimit: 4; fill: rgb(176,150,40); fill-opacity: 1.00; fill-rule: nonzero; opacity: 1;" transform="matrix(2.947963 0 0 2.946568 1616.800402 1564.063022) matrix(1 0 0 1 39.916013 0)  translate(-571.135, -493.667451)" d="M 191.50 986.06 C 189.85 985.66 187.06 984.58 185.30 983.67 C 181.35 981.61 180.00 981.56 180.00 983.48 C 180.00 985.39 176.64 986.21 170.43 985.81 L 165.50 985.50 L 165.24 950.25 L 164.97 915.00 L 172.99 915.00 L 181.00 915.00 L 181.01 924.25 C 181.02 929.34 181.29 934.48 181.61 935.68 L 182.20 937.86 L 186.15 935.80 C 189.42 934.10 191.37 933.82 197.45 934.21 C 210.03 935.02 218.08 941.82 221.03 954.13 C 224.20 967.33 216.17 981.79 203.61 985.52 C 198.26 987.11 196.18 987.20 191.50 986.06 Z M 202.75 969.53 C 205.53 966.54 206.00 965.29 206.00 960.97 C 206.00 952.23 201.54 946.92 194.11 946.82 C 185.88 946.71 181.00 951.96 181.00 960.92 C 181.00 965.10 181.51 966.52 184.10 969.46 C 189.68 975.82 196.90 975.84 202.75 969.53 Z M 250.62 985.79 C 233.56 983.61 223.86 967.13 229.99 950.75 C 233.57 941.19 241.94 935.10 252.69 934.23 C 268.93 932.93 280.17 942.31 281.68 958.45 L 282.29 965.00 L 263.14 965.00 C 241.83 965.00 241.12 965.27 247.53 970.90 C 252.25 975.04 258.89 975.42 266.71 971.99 L 270.92 970.15 L 274.02 973.67 C 275.72 975.61 276.97 977.93 276.79 978.83 C 276.30 981.38 268.45 985.17 262.17 985.89 C 259.05 986.25 253.85 986.20 250.62 985.79 Z M 267.32 953.25 C 265.29 947.50 258.51 944.25 252.14 945.96 C 248.46 946.95 243.00 951.80 243.00 954.08 C 243.00 954.59 248.51 955.00 255.47 955.00 C 266.91 955.00 267.89 954.86 267.32 953.25 Z M 350.50 986.12 C 345.78 984.88 341.15 982.16 339.51 979.65 C 338.30 977.81 336.26 959.21 336.01 947.81 C 336.01 947.44 334.55 946.99 332.78 946.81 C 329.85 946.53 329.47 946.10 328.70 942.19 C 327.73 937.22 328.92 935.00 332.56 935.00 C 335.49 935.00 335.95 934.22 336.69 927.98 L 337.29 922.92 L 344.39 923.21 L 351.50 923.50 L 352.00 929.50 L 352.50 935.50 L 358.00 935.50 L 363.50 935.50 L 363.80 941.25 L 364.10 947.00 L 358.05 947.00 L 352.00 947.00 L 352.00 958.57 C 352.00 964.93 352.47 971.00 353.04 972.07 C 353.85 973.58 355.15 974.00 359.09 974.00 C 363.86 974.00 364.17 974.16 365.55 977.47 C 367.50 982.13 367.38 983.73 364.97 985.02 C 362.24 986.48 354.20 987.09 350.50 986.12 Z M 386.26 985.84 C 381.03 984.94 377.76 982.61 375.07 977.86 C 372.37 973.12 372.44 968.13 375.25 963.95 C 378.86 958.60 382.98 956.84 395.18 955.44 C 401.22 954.74 406.38 953.95 406.66 953.67 C 407.66 952.68 404.88 948.99 402.02 947.51 C 398.28 945.58 389.96 945.57 385.35 947.50 C 379.96 949.75 379.07 949.42 376.82 944.33 C 374.87 939.91 374.85 939.58 376.49 938.38 C 379.02 936.53 391.03 934.00 397.27 934.00 C 408.75 934.00 417.75 939.17 420.02 947.06 C 420.56 948.94 421.00 958.48 421.00 968.24 L 421.00 986.00 L 416.08 986.00 C 410.23 986.00 408.00 985.28 408.00 983.39 C 408.00 981.57 406.49 981.63 403.52 983.58 C 400.39 985.63 391.64 986.77 386.26 985.84 Z M 403.68 972.52 C 408.91 967.29 407.99 965.57 399.78 965.21 C 388.64 964.72 383.52 969.12 389.63 973.93 C 393.91 977.29 399.46 976.74 403.68 972.52 Z M 444.00 985.98 C 436.92 984.52 431.00 981.97 431.00 980.38 C 431.00 979.08 434.69 970.98 435.27 971.01 C 435.40 971.02 438.35 971.92 441.84 973.01 C 452.17 976.25 462.00 975.18 462.00 970.81 C 462.00 968.65 459.70 967.63 449.67 965.37 C 436.20 962.33 431.83 958.69 431.83 950.47 C 431.83 944.63 435.34 939.05 440.66 936.41 C 445.84 933.84 465.55 933.72 471.22 936.23 L 474.94 937.87 L 472.80 943.02 C 470.85 947.73 470.44 948.11 468.08 947.52 C 458.45 945.11 455.34 944.82 451.20 945.94 C 446.59 947.19 445.06 949.16 446.95 951.44 C 447.59 952.21 452.20 953.79 457.18 954.93 C 472.91 958.56 476.00 961.18 476.00 970.87 C 476.00 974.71 475.43 976.52 473.52 978.79 C 468.47 984.80 454.63 988.17 444.00 985.98 Z M 602.48 985.99 C 595.75 985.03 589.95 981.92 585.77 977.04 C 581.60 972.17 580.00 967.24 580.00 959.25 C 580.00 951.58 583.77 943.92 589.82 939.31 C 594.96 935.39 599.58 934.01 607.50 934.03 C 622.01 934.07 632.97 944.89 632.99 959.23 L 633.00 964.95 L 614.75 965.23 C 597.61 965.48 596.50 965.62 596.50 967.39 C 596.50 972.96 610.11 976.02 617.68 972.16 L 621.70 970.11 L 625.35 973.85 C 627.36 975.90 629.00 978.11 629.00 978.75 C 629.00 980.63 620.89 984.84 616.00 985.51 C 613.53 985.85 610.60 986.26 609.50 986.41 C 608.40 986.57 605.24 986.38 602.48 985.99 Z M 619.00 953.61 C 619.00 951.01 613.59 946.33 609.74 945.61 C 604.63 944.65 597.71 947.72 595.55 951.91 L 593.95 955.00 L 606.47 955.00 C 616.52 955.00 619.00 954.72 619.00 953.61 Z M 652.00 986.00 C 642.32 984.30 636.32 974.46 639.99 966.28 C 643.13 959.25 648.08 956.71 661.00 955.50 C 670.85 954.57 672.00 954.20 672.00 951.97 C 672.00 946.90 659.33 944.16 651.35 947.50 C 646.09 949.70 645.26 949.43 642.90 944.80 L 640.76 940.61 L 643.28 938.43 C 649.12 933.41 668.97 932.66 677.66 937.13 C 685.58 941.20 686.44 943.98 686.84 966.75 L 687.18 986.00 L 682.17 986.00 C 676.23 986.00 674.00 985.29 674.00 983.39 C 674.00 981.58 673.42 981.63 668.57 983.90 C 663.96 986.05 657.17 986.91 652.00 986.00 Z M 667.93 974.54 C 670.99 972.95 672.00 971.19 672.00 967.42 C 672.00 965.09 671.75 965.00 664.83 965.00 C 656.93 965.00 654.00 966.51 654.00 970.60 C 654.00 975.36 661.97 977.62 667.93 974.54 Z M 825.08 984.95 C 821.55 983.91 818.23 982.63 817.71 982.11 C 816.51 980.91 817.56 974.98 819.42 972.44 C 820.77 970.59 820.92 970.59 824.58 972.34 C 831.74 975.75 843.11 975.75 846.52 972.34 C 849.20 969.66 845.96 967.33 837.66 966.00 C 827.82 964.42 820.64 960.87 818.60 956.58 C 813.23 945.25 821.98 935.13 837.97 934.21 C 845.97 933.74 855.55 935.22 858.48 937.36 C 860.12 938.56 860.09 938.92 858.02 943.74 L 855.82 948.85 L 851.76 947.41 C 845.59 945.24 837.91 944.69 835.01 946.23 C 829.15 949.34 832.43 952.73 843.50 955.00 C 857.00 957.77 862.00 961.78 862.00 969.83 C 861.99 978.85 855.67 984.19 842.79 986.05 C 834.34 987.27 832.57 987.16 825.08 984.95 Z M 885.17 985.51 C 876.04 982.66 874.22 978.82 873.34 960.52 L 872.69 947.00 L 869.45 947.00 C 865.72 947.00 865.00 945.78 865.00 939.52 L 865.00 935.20 L 868.96 935.35 L 872.92 935.50 L 873.21 929.50 L 873.50 923.50 L 880.75 923.21 L 888.00 922.91 L 888.00 928.85 C 888.00 935.63 888.41 936.00 896.08 936.00 L 901.00 936.00 L 901.00 941.50 L 901.00 947.00 L 895.13 947.00 L 889.26 947.00 L 888.64 950.75 C 887.60 957.06 887.96 968.36 889.29 971.00 C 890.34 973.08 891.45 973.58 895.93 974.00 C 901.11 974.48 901.36 974.64 902.61 978.28 C 904.35 983.33 903.67 984.59 898.49 985.90 C 893.00 987.28 890.61 987.21 885.17 985.51 Z M 923.34 986.09 C 914.99 983.97 910.00 978.23 910.00 970.70 C 910.00 961.22 917.36 956.30 933.07 955.28 C 943.25 954.62 944.76 953.50 940.95 949.45 C 936.56 944.77 927.96 944.39 920.00 948.50 C 917.81 949.63 916.99 949.68 916.23 948.72 C 914.81 946.95 912.00 941.26 912.00 940.17 C 912.00 939.66 914.36 938.21 917.25 936.94 C 925.21 933.45 938.84 933.01 945.83 936.02 C 951.79 938.59 955.44 942.42 957.02 947.78 C 957.63 949.83 958.38 959.26 958.71 968.75 L 959.29 986.00 L 953.14 986.00 C 948.36 986.00 946.56 985.56 945.02 984.02 C 943.06 982.06 943.01 982.06 939.77 983.96 C 935.97 986.19 927.88 987.24 923.34 986.09 Z M 939.04 974.48 C 942.01 972.94 943.69 969.24 942.64 966.50 C 942.22 965.40 940.48 965.00 936.10 965.00 C 927.74 965.00 925.00 966.21 925.00 969.90 C 925.00 971.53 925.71 973.56 926.57 974.43 C 928.58 976.44 935.20 976.47 939.04 974.48 Z M 985.57 985.51 C 983.41 984.74 980.08 982.55 978.17 980.64 L 974.70 977.16 L 973.90 963.83 C 973.46 956.50 973.08 949.74 973.05 948.81 C 973.02 947.66 971.98 947.03 969.75 946.81 C 966.57 946.51 966.50 946.39 966.50 941.63 C 966.50 936.95 966.63 936.72 970.00 935.63 C 973.41 934.53 973.51 934.35 973.80 928.75 L 974.10 923.00 L 981.00 923.00 L 987.90 923.00 L 988.20 929.11 L 988.50 935.22 L 995.00 935.36 C 1001.04 935.49 1001.52 935.67 1001.84 937.88 C 1002.02 939.19 1001.89 941.78 1001.54 943.63 L 1000.91 947.00 L 994.95 947.00 L 989.00 947.00 L 989.00 958.57 C 989.00 964.93 989.47 971.00 990.04 972.07 C 990.86 973.61 992.16 974.00 996.50 974.00 L 1001.92 974.00 L 1003.10 977.92 C 1004.64 983.08 1003.90 984.66 999.31 985.93 C 994.27 987.33 990.34 987.21 985.57 985.51 Z M 1031.43 985.94 C 1022.13 984.70 1014.99 979.73 1010.73 971.55 C 1007.70 965.72 1007.76 955.16 1010.87 948.76 C 1013.67 942.98 1020.51 936.76 1025.81 935.18 C 1031.23 933.55 1039.78 933.71 1045.13 935.53 C 1055.18 938.95 1060.97 946.85 1061.78 958.25 L 1062.27 965.00 L 1043.69 965.00 C 1031.65 965.00 1024.89 965.37 1024.46 966.06 C 1023.48 967.65 1026.95 971.04 1031.75 973.19 C 1036.54 975.34 1041.06 974.95 1047.16 971.89 L 1050.82 970.05 L 1054.41 974.03 C 1056.38 976.22 1058.00 978.42 1058.00 978.92 C 1058.00 979.42 1056.54 980.72 1054.75 981.80 C 1048.43 985.61 1040.06 987.10 1031.43 985.94 Z M 1048.00 954.08 C 1048.00 952.04 1042.72 947.06 1039.40 945.97 C 1032.92 943.83 1027.44 946.25 1024.09 952.75 L 1022.93 955.00 L 1035.46 955.00 C 1042.46 955.00 1048.00 954.59 1048.00 954.08 Z M 86.25 985.26 L 80.00 984.90 L 80.00 952.10 L 80.00 919.29 L 87.07 918.63 C 90.96 918.27 94.56 918.23 95.07 918.55 C 95.61 918.87 96.00 930.59 96.00 946.03 L 96.00 972.95 L 112.75 973.23 L 129.50 973.50 L 129.80 979.75 L 130.10 986.00 L 111.30 985.81 C 100.96 985.70 89.69 985.45 86.25 985.26 Z M 137.00 960.00 L 137.00 934.00 L 144.50 934.00 L 152.00 934.00 L 152.00 960.00 L 152.00 986.00 L 144.50 986.00 L 137.00 986.00 L 137.00 960.00 Z M 292.00 959.95 L 292.00 933.91 L 298.75 934.20 C 305.29 934.49 305.51 934.59 305.82 937.25 C 306.14 940.09 307.37 940.83 308.56 938.90 C 309.69 937.08 317.27 934.05 320.75 934.02 L 324.00 934.00 L 324.00 939.96 C 324.00 946.54 323.44 947.21 316.91 948.38 C 309.15 949.78 307.11 955.13 307.04 974.25 L 307.00 986.00 L 299.50 986.00 L 292.00 986.00 L 292.00 959.95 Z M 514.67 985.33 C 514.30 984.97 514.00 969.88 514.00 951.80 C 514.00 922.54 514.18 918.87 515.61 918.32 C 516.49 917.98 525.38 918.13 535.36 918.65 C 552.60 919.55 553.76 919.74 558.82 922.50 C 568.56 927.80 572.83 935.33 571.66 945.18 C 570.92 951.51 567.91 957.07 562.92 961.34 L 558.77 964.89 L 565.89 974.98 C 569.80 980.53 573.00 985.28 573.00 985.53 C 573.00 985.79 569.29 985.99 564.75 985.99 L 556.50 985.97 L 550.06 976.49 L 543.63 967.00 L 536.31 967.00 L 529.00 967.00 L 529.00 976.50 L 529.00 986.00 L 522.17 986.00 C 518.41 986.00 515.03 985.70 514.67 985.33 Z M 546.50 954.03 C 554.30 952.23 558.03 944.83 554.55 938.10 C 551.97 933.11 549.06 932.00 538.54 932.00 L 529.00 932.00 L 529.00 941.57 C 529.00 954.12 529.52 955.01 536.79 954.98 C 539.93 954.96 544.30 954.54 546.50 954.03 Z M 701.00 950.54 L 701.00 915.00 L 709.01 915.00 L 717.03 915.00 L 716.76 950.25 L 716.50 985.50 L 708.75 985.79 L 701.00 986.08 L 701.00 950.54 Z M 758.00 952.02 L 758.00 918.00 L 783.00 918.00 L 808.00 918.00 L 808.00 925.00 L 808.00 932.00 L 790.50 932.00 L 773.00 932.00 L 773.00 938.35 L 773.00 944.70 L 782.75 945.34 C 788.11 945.70 795.03 945.99 798.12 945.99 L 803.74 946.00 L 804.42 951.12 C 804.79 953.93 804.82 956.52 804.47 956.87 C 804.12 957.22 797.01 957.72 788.67 958.00 L 773.50 958.50 L 773.21 965.73 L 772.91 972.95 L 791.21 973.23 L 809.50 973.50 L 809.50 979.50 L 809.50 985.50 L 783.75 985.77 L 758.00 986.03 L 758.00 952.02 Z M 138.05 924.20 C 134.23 920.38 134.19 917.65 137.92 913.92 C 141.65 910.19 146.68 909.96 150.61 913.34 C 156.19 918.14 153.15 925.63 145.20 926.70 C 141.59 927.18 140.73 926.88 138.05 924.20 Z M 147.52 283.75 C 146.68 267.32 146.28 1.40 147.09 0.58 C 147.81 -0.15 157.82 1.90 195.07 10.38 C 235.42 19.58 241.30 21.08 243.00 22.67 C 244.32 23.90 244.50 38.88 244.50 145.79 C 244.50 212.73 244.17 268.67 243.77 270.11 C 243.09 272.53 241.81 273.04 225.77 277.32 C 200.83 283.98 150.10 297.00 149.08 297.00 C 148.60 297.00 147.90 291.04 147.52 283.75 Z M 176.08 154.08 C 178.33 151.83 179.00 150.24 179.00 147.19 C 179.00 141.85 176.54 139.02 171.29 138.31 C 167.57 137.81 166.75 138.10 164.05 140.80 C 159.63 145.22 160.16 151.01 165.37 155.23 C 168.64 157.88 172.72 157.44 176.08 154.08 Z" stroke-linecap="round"></path>
</g>
</g>
</g>


        <g id="3c6e29c9-5876-47d9-a762-bf5bb8587fab" name="New Group">
          <g id="296ce361-a7bc-439b-9449-2bb5874ff720">
<g style="">
		<g id="296ce361-a7bc-439b-9449-2bb5874ff720-child-0">
<path style="stroke: rgb(193,193,193); stroke-opacity: 1.00; stroke-width: 0; stroke-dasharray: none; stroke-linecap: butt; stroke-dashoffset: 0; stroke-linejoin: miter; stroke-miterlimit: 4; fill: rgb(27,42,71); fill-opacity: 1.00; fill-rule: nonzero; opacity: 1;" transform="matrix(0.589634 0 0 0.589527 2888.291611 2618.608643) matrix(1 0 0 1 0 0)  translate(-524.868743, -183.439319)" d="M 837.50 357.96 C 816.52 355.24 795.08 350.61 780.50 345.67 C 760.06 338.74 739.30 329.07 734.98 324.48 L 732.69 322.04 L 735.20 315.26 C 739.02 304.90 752.53 273.54 757.27 264.00 C 762.44 253.61 761.94 253.66 779.70 261.55 C 819.15 279.07 840.51 284.31 873.00 284.43 C 906.35 284.56 924.62 277.51 927.97 263.22 C 928.65 260.32 928.93 256.44 928.58 254.59 C 927.13 246.86 916.80 237.71 904.15 232.94 C 901.04 231.77 883.88 227.08 866.00 222.51 C 815.23 209.54 807.39 207.12 791.49 199.50 C 766.17 187.37 749.37 169.77 741.91 147.56 C 734.74 126.21 736.37 96.57 745.89 75.59 C 762.67 38.57 803.99 14.32 859.50 8.91 C 875.06 7.39 914.80 8.29 929.00 10.48 C 950.25 13.76 973.60 20.36 993.05 28.56 C 1004.26 33.30 1008.00 35.89 1008.00 38.92 C 1008.00 42.90 984.20 97.31 979.16 104.85 C 978.44 105.92 975.57 105.06 964.97 100.56 C 933.79 87.35 914.46 83.00 886.85 83.00 C 857.85 83.00 842.51 87.96 835.91 99.45 C 833.50 103.66 833.02 105.63 833.01 111.35 C 833.00 115.71 833.61 119.48 834.68 121.74 C 838.72 130.26 857.34 137.54 902.00 148.05 C 950.63 159.50 973.12 168.22 992.15 183.01 C 1013.95 199.96 1024.50 225.56 1022.65 257.00 C 1021.16 282.15 1012.83 300.86 995.31 318.41 C 976.92 336.83 948.07 350.69 916.00 356.51 C 905.00 358.50 849.59 359.53 837.50 357.96 Z M 37.69 352.22 L 26.88 351.93 L 27.19 184.05 C 27.36 91.71 27.87 15.79 28.33 15.34 C 28.78 14.89 46.55 14.37 67.83 14.19 L 106.50 13.86 L 133.43 58.68 C 186.67 147.29 217.35 196.93 223.77 204.87 L 225.69 207.25 L 256.22 156.37 C 273.01 128.39 298.75 85.25 313.41 60.50 L 340.08 15.50 L 347.29 14.88 C 351.26 14.54 368.95 14.20 386.61 14.13 L 418.73 14.00 L 419.34 24.25 C 419.68 29.89 420.26 105.86 420.63 193.09 L 421.30 351.68 L 377.92 352.28 C 354.07 352.61 334.39 352.72 334.19 352.53 C 333.99 352.33 333.41 323.44 332.89 288.33 C 331.70 208.08 330.95 178.00 330.13 178.00 C 329.59 178.00 255.10 301.83 247.87 314.74 L 245.50 318.98 L 227.89 318.99 C 202.79 319.00 201.70 318.79 198.12 313.12 C 196.52 310.58 179.34 282.62 159.96 251.00 C 117.32 181.46 118.05 182.61 117.19 183.47 C 116.81 183.85 116.28 222.04 116.00 268.33 L 115.50 352.50 L 82.00 352.50 C 63.58 352.50 43.64 352.37 37.69 352.22 Z M 451.00 183.25 L 451.00 13.50 L 497.45 14.04 C 523.01 14.33 544.17 14.84 544.50 15.16 C 544.82 15.48 545.36 74.53 545.70 146.37 L 546.33 277.00 L 626.66 277.00 L 707.00 277.00 L 707.00 315.00 L 707.00 353.00 L 579.00 353.00 L 451.00 353.00 L 451.00 183.25 Z" stroke-linecap="round"></path>
</g>
</g>
</g>

<g id="961f3ff0-d6a4-49b0-99ca-2d2398be9ed4">
<g style="">
		<g id="961f3ff0-d6a4-49b0-99ca-2d2398be9ed4-child-0">
<path style="stroke: rgb(193,193,193); stroke-opacity: 1.00; stroke-width: 0; stroke-dasharray: none; stroke-linecap: butt; stroke-dashoffset: 0; stroke-linejoin: miter; stroke-miterlimit: 4; fill: rgb(27,42,71); fill-opacity: 1.00; fill-rule: nonzero; opacity: 1;" transform="matrix(0.532561 0 0 0.53226 2446.054704 2618.903991) matrix(1 0 0 1 0 0)  translate(-173.5, -190.5)" d="M 0.00 190.50 L 0.00 4.00 L 173.50 4.00 L 347.00 4.00 L 347.00 190.50 L 347.00 377.00 L 173.50 377.00 L 0.00 377.00 L 0.00 190.50 Z M 316.00 325.07 C 318.32 324.39 313.80 319.61 254.00 259.42 C 218.52 223.71 189.22 194.37 188.88 194.21 C 187.30 193.47 187.00 204.49 187.00 262.55 C 187.00 321.05 187.11 324.88 188.75 325.31 C 191.70 326.08 313.33 325.85 316.00 325.07 Z M 148.00 188.49 L 148.00 52.98 L 99.25 53.24 L 50.50 53.50 L 49.75 66.50 C 48.76 83.82 49.27 321.15 50.31 322.75 C 50.94 323.72 61.90 324.00 99.56 324.00 L 148.00 324.00 L 148.00 188.49 Z M 229.00 188.00 C 244.32 186.86 251.02 185.19 261.99 179.82 C 273.45 174.21 284.72 163.06 290.78 151.35 L 295.00 143.19 L 295.00 122.97 L 295.00 102.74 L 290.35 93.92 C 278.74 71.90 262.62 59.77 238.51 54.93 C 229.08 53.04 215.87 52.33 197.75 52.75 L 187.00 53.00 L 187.00 121.00 L 187.00 189.00 L 201.75 188.97 C 209.86 188.95 222.12 188.52 229.00 188.00 Z" stroke-linecap="round"></path>
</g>
</g>
</g>

<g id="7a8552eb-e572-402d-a21d-0f8df9129c78">
<g style="">
		<g id="7a8552eb-e572-402d-a21d-0f8df9129c78-child-0">
<path style="stroke: rgb(193,193,193); stroke-opacity: 1.00; stroke-width: 0; stroke-dasharray: none; stroke-linecap: butt; stroke-dashoffset: 0; stroke-linejoin: miter; stroke-miterlimit: 4; fill: rgb(27,42,71); fill-opacity: 1.00; fill-rule: nonzero; opacity: 1;" transform="matrix(0.230916 0 0 0.231006 2174.135916 2618.85717) matrix(1 0 0 1 0 0)  translate(-608.717902, -430.083489)" d="M 306.68 858.96 C 149.78 858.49 71.53 857.93 70.85 857.25 C 70.17 856.57 69.51 801.65 68.89 694.86 C 67.66 484.28 67.01 442.58 64.95 440.52 C 63.03 438.60 49.48 437.35 20.74 436.44 L -0.01 435.78 L 0.24 365.70 L 0.50 295.62 L 119.00 236.85 C 464.31 65.58 575.43 11.20 600.80 1.04 C 607.55 -1.67 599.08 -5.61 850.00 116.99 C 898.67 140.78 961.00 171.15 988.50 184.50 C 1132.60 254.43 1201.83 288.55 1209.17 293.25 C 1213.43 295.97 1215.12 297.77 1216.15 300.67 C 1217.23 303.75 1217.49 317.32 1217.44 369.73 C 1217.41 405.60 1217.15 435.18 1216.87 435.46 C 1216.59 435.74 1203.57 436.42 1187.93 436.96 C 1172.29 437.51 1154.51 438.24 1148.41 438.59 L 1137.32 439.22 L 1136.65 623.36 C 1136.28 724.64 1135.69 819.31 1135.33 833.75 L 1134.69 860.00 L 838.09 859.83 C 674.97 859.73 435.83 859.34 306.68 858.96 Z M 1003.51 557.25 C 1003.09 462.24 1002.47 375.78 1002.12 365.13 L 1001.50 345.76 L 991.50 340.30 C 986.00 337.29 945.05 315.92 900.50 292.80 C 798.27 239.74 796.67 238.91 754.00 216.97 C 734.47 206.93 700.72 189.39 679.00 177.98 C 657.28 166.58 631.38 153.19 621.45 148.22 L 603.40 139.19 L 536.95 173.16 C 323.24 282.43 215.63 338.08 201.44 346.68 C 199.59 347.80 199.47 349.67 198.85 387.18 C 198.03 437.00 198.06 701.65 198.88 717.00 L 199.50 728.50 L 383.50 729.00 C 484.70 729.28 665.78 729.62 785.89 729.75 L 1004.28 730.00 L 1003.51 557.25 Z M 424.00 676.07 L 416.50 675.50 L 416.24 608.75 L 415.99 542.00 L 601.99 542.00 L 788.00 542.00 L 788.00 609.50 L 788.00 677.00 L 609.75 676.82 C 511.71 676.72 428.12 676.38 424.00 676.07 Z M 418.11 479.09 C 415.53 477.46 414.80 457.84 415.26 403.45 C 415.58 366.89 416.07 349.74 416.84 348.29 C 417.82 346.48 419.24 346.09 427.23 345.50 C 432.33 345.12 514.45 344.96 609.73 345.15 L 782.95 345.50 L 785.58 348.12 L 788.20 350.74 L 788.35 414.12 C 788.43 448.98 788.14 478.06 787.69 478.75 C 787.05 479.74 749.06 480.00 603.19 479.98 C 498.96 479.98 418.90 479.59 418.11 479.09 Z" stroke-linecap="round"></path>
</g>
</g>
</g>

        </g>
      
        </g>
      
  </svg>