<svg xmlns="http://www.w3.org/2000/svg" xmlns:xlink="http://www.w3.org/1999/xlink" width="3322px" height="560px" viewBox="0 0 3321.602091295867 560">
    <g id="b60897e9-2165-4273-a1ec-3f082f49f851">
<g style="">
		<g id="b60897e9-2165-4273-a1ec-3f082f49f851-child-0">
<path style="stroke: rgb(193,193,193); stroke-opacity: 1.00; stroke-width: 0; stroke-dasharray: none; stroke-linecap: butt; stroke-dashoffset: 0; stroke-linejoin: miter; stroke-miterlimit: 4; fill: rgb(29,53,85); fill-opacity: 1.00; fill-rule: nonzero; opacity: 1;" transform="matrix(1.373614 0 0 1.358781 1660.800755 280.000037) matrix(1 0 0 1 0 -0.96687)  translate(-1129, -159.485)" d="M 2048.00 253.02 C 2012.50 251.05 1994.52 245.82 1984.10 234.42 C 1976.97 226.62 1974.54 218.65 1974.54 203.00 C 1974.54 179.88 1981.80 168.13 1999.61 162.40 C 2002.30 161.54 2005.18 160.60 2006.00 160.33 C 2006.84 160.04 2005.08 159.05 2002.00 158.08 C 1989.38 154.08 1981.79 147.51 1978.58 137.80 C 1975.98 129.91 1975.41 114.09 1977.43 105.52 C 1983.32 80.52 2003.12 72.70 2064.00 71.33 C 2134.33 69.75 2163.21 77.36 2172.19 99.85 C 2174.15 104.77 2174.44 107.31 2174.44 119.50 C 2174.44 131.69 2174.15 134.23 2172.19 139.14 C 2168.44 148.53 2159.92 155.34 2148.00 158.47 L 2143.50 159.65 L 2149.00 161.46 C 2161.00 165.42 2168.30 170.87 2172.51 179.03 C 2178.41 190.43 2178.23 215.79 2172.17 227.67 C 2169.45 233.00 2161.02 240.65 2154.63 243.57 C 2147.00 247.06 2135.28 249.85 2121.50 251.46 C 2106.30 253.24 2066.92 254.07 2048.00 253.02 Z M 215.50 74.50 L 401.00 73.99 L 401.00 112.00 L 261.00 112.00 L 261.00 141.99 L 393.50 142.50 L 394.05 179.00 L 261.00 179.00 L 261.00 212.00 L 404.00 212.00 L 404.00 250.00 L 214.99 250.00 L 215.50 74.50 Z M 642.24 162.25 L 642.50 74.50 L 828.00 73.99 L 828.00 112.00 L 688.00 112.00 L 688.00 141.99 L 820.50 142.50 L 820.77 160.75 L 821.05 179.00 L 688.00 179.00 L 688.00 212.00 L 831.00 212.00 L 831.00 250.00 L 641.99 250.00 Z M 1519.24 162.25 L 1519.50 74.50 L 1704.50 74.50 L 1705.04 112.00 L 1565.00 112.00 L 1565.00 142.00 L 1697.00 142.00 L 1697.00 179.00 L 1565.00 179.00 L 1565.00 211.99 L 1636.25 212.24 L 1707.50 212.50 L 1708.04 250.00 L 1518.99 250.00 Z M 1063.17 249.17 C 1063.35 248.72 1084.61 209.11 1110.41 161.16 L 1157.33 73.97 L 1186.73 74.24 L 1216.14 74.50 L 1262.67 161.00 C 1288.27 208.57 1309.43 248.06 1309.71 248.75 C 1310.11 249.73 1304.45 250.00 1283.36 249.98 L 1256.50 249.97 L 1248.60 234.48 L 1240.70 219.00 L 1185.10 219.02 L 1129.50 219.04 L 1121.56 234.52 L 1113.61 250.00 L 1088.22 250.00 C 1074.26 250.00 1062.98 249.63 1063.17 249.17 Z M 1875.00 215.01 L 1806.25 214.76 L 1737.50 214.50 L 1737.23 189.89 L 1736.97 165.27 L 1802.68 119.64 L 1868.39 74.00 L 1919.00 74.00 L 1919.00 179.00 L 1946.00 179.00 L 1946.00 215.00 L 1919.00 215.00 L 1919.00 250.00 L 1875.00 250.00 L 1875.00 215.01 Z M 940.70 249.27 C 937.57 243.80 847.94 77.02 847.46 75.75 C 846.83 74.11 848.41 74.00 872.27 74.00 C 891.47 74.00 898.00 74.31 898.73 75.25 C 899.27 75.94 915.59 106.99 935.00 144.25 C 954.41 181.51 970.56 211.99 970.89 211.97 C 971.23 211.96 987.77 181.02 1007.65 143.22 L 1043.81 74.50 L 1068.02 74.23 C 1087.25 74.02 1092.12 74.22 1091.72 75.23 C 1091.43 75.93 1070.26 115.43 1044.66 163.00 L 998.12 249.50 L 969.63 249.77 C 953.96 249.91 940.94 249.69 940.70 249.27 Z M 1365.00 113.00 L 1284.96 113.00 L 1285.50 74.50 L 1490.00 73.99 L 1490.00 113.00 L 1411.00 113.00 L 1411.00 250.00 L 1365.00 250.00 L 1365.00 113.00 Z M 440.00 74.00 L 486.00 74.00 L 486.00 212.00 L 614.00 212.00 L 614.00 250.00 L 440.00 250.00 L 440.00 74.00 Z M 2200.21 288.75 L 2200.50 280.50 L 2220.75 280.23 L 2241.00 279.96 L 2241.00 41.04 L 2200.50 40.50 L 2200.50 22.50 L 2258.00 21.97 L 2258.00 297.00 L 2199.92 297.00 Z M 0.00 21.97 L 57.50 22.50 L 57.50 40.50 L 17.00 41.04 L 17.00 279.96 L 37.25 280.23 L 57.50 280.50 L 57.79 288.75 L 58.08 297.00 L 0.00 297.00 L 0.00 21.97 Z M 2109.96 216.97 C 2120.20 215.89 2126.61 213.46 2128.94 209.78 C 2129.79 208.42 2130.53 204.06 2130.75 199.00 C 2131.04 192.21 2130.75 189.81 2129.31 187.07 C 2125.25 179.37 2117.32 178.04 2075.50 178.04 C 2024.28 178.04 2020.50 179.39 2020.50 197.68 C 2020.50 216.04 2024.73 217.63 2074.00 217.85 C 2088.57 217.91 2104.76 217.52 2109.96 216.97 Z M 2109.21 142.00 C 2126.02 140.37 2129.34 137.68 2129.44 125.63 C 2129.59 108.05 2125.84 106.72 2076.00 106.67 C 2037.43 106.63 2030.35 107.45 2025.27 112.53 C 2022.66 115.14 2021.97 116.68 2021.85 120.15 C 2021.14 141.40 2023.94 142.62 2074.00 142.84 C 2088.02 142.90 2103.87 142.52 2109.21 142.00 Z M 1875.00 146.38 C 1875.00 120.43 1874.74 113.95 1873.75 114.73 C 1873.06 115.26 1852.25 129.56 1827.50 146.51 C 1802.75 163.45 1782.07 177.69 1781.55 178.16 C 1781.03 178.62 1801.84 179.00 1827.80 179.00 L 1875.00 179.00 Z M 1220.00 180.01 C 1220.00 178.58 1185.86 113.00 1185.12 113.00 C 1184.48 113.00 1150.00 179.11 1150.00 180.32 C 1150.00 180.70 1165.75 181.00 1185.00 181.00 C 1207.49 181.00 1220.00 180.65 1220.00 180.01 Z" stroke-linecap="round"></path>
</g>
		<g id="b60897e9-2165-4273-a1ec-3f082f49f851-child-1">
<path style="stroke: rgb(193,193,193); stroke-opacity: 1.00; stroke-width: 0; stroke-dasharray: none; stroke-linecap: butt; stroke-dashoffset: 0; stroke-linejoin: miter; stroke-miterlimit: 4; fill: rgb(152,48,48); fill-opacity: 1.00; fill-rule: nonzero; opacity: 1;" transform="matrix(1.373614 0 0 1.358781 1660.800755 280.000037) matrix(1 0 0 1 -1007.183576 0)  translate(-121.816423, -160.45187)" d="M 69.83 160.85 C 69.65 72.66 69.57 0.35 69.66 0.17 C 69.75 -0.01 93.15 5.17 121.66 11.69 L 173.50 23.54 L 173.75 159.11 L 174.01 294.67 L 123.88 307.46 C 96.31 314.50 72.94 320.46 71.95 320.72 C 70.23 321.17 70.14 314.54 69.83 160.85 Z M 101.60 166.60 C 108.62 159.58 104.18 149.07 94.17 149.02 C 88.05 148.99 83.99 153.05 84.02 159.17 C 84.07 169.19 94.57 173.63 101.60 166.60 Z" stroke-linecap="round"></path>
</g>
</g>
</g>

  </svg>